<?xml version="1.0" encoding="UTF-8" standalone="no"?>
<!DOCTYPE svg PUBLIC "-//W3C//DTD SVG 1.0//EN" "http://www.w3.org/TR/2001/PR-SVG-20010719/DTD/svg10.dtd">
<svg width="26cm" height="17cm" viewBox="171 103 513 337" xmlns="http://www.w3.org/2000/svg" xmlns:xlink="http://www.w3.org/1999/xlink">
  <rect style="fill: none; fill-opacity:0; stroke-width: 2.35099e-37; stroke: #000000" x="171" y="103.75" width="512" height="336.25"/>
  <text font-size="12.8" style="fill: #000000;text-anchor:start;font-family:sans-serif;font-style:normal;font-weight:normal" x="704" y="388">
    <tspan x="704" y="388"></tspan>
  </text>
  <g>
    <rect style="fill: #ffffff" x="221.3" y="189.3" width="100.7" height="43.7"/>
    <rect style="fill: none; fill-opacity:0; stroke-width: 2; stroke: #000000" x="221.3" y="189.3" width="100.7" height="43.7"/>
  </g>
  <text font-size="12.8" style="fill: #000000;text-anchor:start;font-family:sans-serif;font-style:normal;font-weight:700" x="240.3" y="214.8">
    <tspan x="240.3" y="214.8">mycode.c</tspan>
  </text>
  <text font-size="12.8" style="fill: #000000;text-anchor:start;font-family:sans-serif;font-style:normal;font-weight:normal" x="333" y="223">
    <tspan x="333" y="223"></tspan>
  </text>
  <g>
    <rect style="fill: #ffffff" x="352.3" y="190.3" width="112.7" height="41.45"/>
    <rect style="fill: none; fill-opacity:0; stroke-width: 2; stroke: #000000" x="352.3" y="190.3" width="112.7" height="41.45"/>
  </g>
  <text font-size="12.8" style="fill: #000000;text-anchor:start;font-family:sans-serif;font-style:normal;font-weight:normal" x="487" y="220">
    <tspan x="487" y="220"></tspan>
  </text>
  <text font-size="12.8" style="fill: #000000;text-anchor:start;font-family:sans-serif;font-style:normal;font-weight:normal" x="408.65" y="211.026">
    <tspan x="408.65" y="211.026"></tspan>
  </text>
  <text font-size="12.8" style="fill: #000000;text-anchor:start;font-family:sans-serif;font-style:normal;font-weight:normal" x="657.15" y="389.3">
    <tspan x="657.15" y="389.3"></tspan>
  </text>
  <text font-size="12.8" style="fill: #000000;text-anchor:start;font-family:sans-serif;font-style:normal;font-weight:normal" x="652.15" y="389.3">
    <tspan x="652.15" y="389.3"></tspan>
  </text>
  <text font-size="12.8" style="fill: #000000;text-anchor:start;font-family:sans-serif;font-style:normal;font-weight:normal" x="561" y="135">
    <tspan x="561" y="135"></tspan>
  </text>
  <text font-size="12.8" style="fill: #000000;text-anchor:start;font-family:sans-serif;font-style:normal;font-weight:700" x="367.3" y="215.8">
    <tspan x="367.3" y="215.8">mycode.???</tspan>
  </text>
  <text font-size="12.8" style="fill: #000000;text-anchor:start;font-family:sans-serif;font-style:normal;font-weight:normal" x="540.15" y="210.526">
    <tspan x="540.15" y="210.526"></tspan>
  </text>
  <g>
    <path style="fill: none; fill-opacity:0; stroke-width: 2; stroke-dasharray: 4; stroke: #000000" d="M 369.975,180.398 A 53.3447,53.3447 0 0 0 287,182.75"/>
    <polygon style="fill: #000000" points="372.771,183.882 366.967,180.519 370.297,180.123 371.979,177.221 "/>
    <polygon style="fill: none; fill-opacity:0; stroke-width: 2; stroke: #000000" points="372.771,183.882 366.967,180.519 370.297,180.123 371.979,177.221 "/>
  </g>
  <text font-size="12.8" style="fill: #000000;text-anchor:start;font-family:sans-serif;font-style:normal;font-weight:normal" x="513" y="147">
    <tspan x="513" y="147"></tspan>
  </text>
  <g>
    <path style="fill: none; fill-opacity:0; stroke-width: 2; stroke-dasharray: 4; stroke: #000000" d="M 529.609,180.77 A 53.3447,53.3447 0 0 0 446.634,183.122"/>
    <polygon style="fill: #000000" points="532.405,184.254 526.601,180.891 529.931,180.495 531.613,177.593 "/>
    <polygon style="fill: none; fill-opacity:0; stroke-width: 2; stroke: #000000" points="532.405,184.254 526.601,180.891 529.931,180.495 531.613,177.593 "/>
  </g>
  <text font-size="12.8" style="fill: #000000;text-anchor:start;font-family:sans-serif;font-style:normal;font-weight:700" x="316.6" y="151">
    <tspan x="316.6" y="151">???</tspan>
  </text>
  <g>
    <g>
      <path style="fill: #ffffff" d="M 543.429 175 L 620.571,175 L 636,210 L 620.571,245 L 543.429,245 L 528,210 L 543.429,175z"/>
      <path style="fill: none; fill-opacity:0; stroke-width: 2; stroke: #000000" d="M 543.429 175 L 620.571,175 L 636,210 L 620.571,245 L 543.429,245 L 528,210 L 543.429,175"/>
      <text font-size="12.8" style="fill: #000000;text-anchor:middle;font-family:sans-serif;font-style:normal;font-weight:normal" x="582" y="214">
        <tspan x="582" y="214"></tspan>
      </text>
    </g>
    <text font-size="12.8" style="fill: #000000;text-anchor:start;font-family:sans-serif;font-style:normal;font-weight:700" x="547.6" y="213">
      <tspan x="547.6" y="213">BROWSER</tspan>
    </text>
  </g>
  <g>
    <path style="fill: #ffffff" d="M 582 153.25 C 582,181.75 610.5,181.75 624.75,167.5 C 610.5,181.75 610.5,210.25 639,210.25 C 610.5,210.25 610.5,238.75 624.75,253 C 610.5,238.75 582,238.75 582,267.25 C 582,238.75 553.5,238.75 539.25,253 C 553.5,238.75 553.5,210.25 525,210.25 C 553.5,210.25 553.5,181.75 539.25,167.5 C 553.5,181.75 582,181.75 582,153.25z"/>
    <path style="fill: none; fill-opacity:0; stroke-width: 2; stroke: #000000" d="M 582 153.25 C 582,181.75 610.5,181.75 624.75,167.5 C 610.5,181.75 610.5,210.25 639,210.25 C 610.5,210.25 610.5,238.75 624.75,253 C 610.5,238.75 582,238.75 582,267.25 C 582,238.75 553.5,238.75 539.25,253 C 553.5,238.75 553.5,210.25 525,210.25 C 553.5,210.25 553.5,181.75 539.25,167.5 C 553.5,181.75 582,181.75 582,153.25"/>
    <path style="fill: none; fill-opacity:0; stroke-width: 2; stroke: #000000" d="M 582 153.25 C 582,181.75 610.5,181.75 624.75,167.5 C 610.5,181.75 610.5,210.25 639,210.25 C 610.5,210.25 610.5,238.75 624.75,253 C 610.5,238.75 582,238.75 582,267.25 C 582,238.75 553.5,238.75 539.25,253 C 553.5,238.75 553.5,210.25 525,210.25 C 553.5,210.25 553.5,181.75 539.25,167.5 C 553.5,181.75 582,181.75 582,153.25"/>
  </g>
  <text font-size="12.8" style="fill: #000000;text-anchor:start;font-family:sans-serif;font-style:normal;font-weight:700" x="556" y="215.2">
    <tspan x="556" y="215.2">PLUGIN!</tspan>
  </text>
</svg>
